<?xml version="1.0" standalone="no"?>
<!DOCTYPE svg PUBLIC "-//W3C//DTD SVG 20010904//EN"
 "http://www.w3.org/TR/2001/REC-SVG-20010904/DTD/svg10.dtd">
<svg version="1.0" xmlns="http://www.w3.org/2000/svg"
 width="260.000000pt" height="260.000000pt" viewBox="0 0 260.000000 260.000000"
 preserveAspectRatio="xMidYMid meet">
<metadata>
Created by potrace 1.14, written by Peter Selinger 2001-2017
</metadata>
<g transform="translate(0.000000,260.000000) scale(0.100000,-0.100000)"
fill="#000000" stroke="none">
<path d="M0 2345 l0 -255 38 2 c56 3 148 -12 237 -37 44 -13 103 -28 130 -33
28 -6 79 -23 115 -37 l65 -26 -57 6 c-31 3 -65 8 -75 12 -10 3 -15 3 -12 -1
15 -17 133 -39 221 -42 117 -4 207 20 363 93 25 11 26 13 5 8 -14 -4 -43 -11
-65 -16 -22 -5 -57 -18 -77 -29 -20 -11 -63 -22 -95 -25 l-58 -4 34 15 c18 8
43 16 55 18 11 2 55 16 96 31 152 54 212 67 340 72 90 3 145 1 195 -10 84 -18
197 -67 191 -83 -3 -7 3 -10 15 -7 11 3 19 0 19 -6 0 -7 4 -10 9 -7 11 7 36
-22 36 -42 0 -8 6 -17 14 -20 10 -3 11 0 5 9 -7 12 -5 12 9 0 9 -7 15 -17 12
-21 -7 -11 20 -31 30 -22 5 4 5 2 2 -4 -8 -14 17 -37 27 -26 4 4 6 0 4 -8 -1
-8 2 -14 9 -13 8 2 10 -4 6 -14 -4 -10 -2 -14 4 -10 6 4 19 -3 29 -16 l19 -22
-22 19 c-13 11 -23 16 -23 13 0 -4 -34 26 -75 67 -77 75 -160 127 -265 162
-43 15 -84 19 -185 19 -141 0 -223 -16 -325 -63 -30 -14 -59 -26 -65 -26 -5
-1 -12 -3 -15 -6 -3 -3 -18 -14 -33 -24 -59 -37 -14 -26 125 30 l143 57 120 0
c143 0 208 -15 345 -81 38 -19 195 -170 225 -217 32 -49 81 -156 100 -215 9
-30 30 -82 45 -115 15 -33 32 -72 38 -86 6 -15 34 -50 64 -78 29 -28 87 -83
128 -123 41 -40 81 -71 88 -70 7 2 15 -4 18 -13 3 -8 13 -15 22 -15 8 0 24 -7
34 -16 15 -14 18 -15 23 -2 7 16 36 17 57 1 7 -5 21 -13 31 -16 9 -4 17 -12
17 -19 0 -9 -3 -9 -8 -2 -10 15 -42 25 -42 14 0 -18 5 -24 20 -26 38 -6 83
-22 66 -23 -16 -1 -17 -4 -8 -13 9 -9 15 -9 23 -1 6 6 18 9 25 6 11 -4 14 5
14 36 0 28 -5 44 -15 47 -8 4 -15 10 -15 15 0 4 7 6 15 3 13 -5 15 86 15 790
l0 796 -1300 0 -1300 0 0 -255z m1955 -676 c20 -38 45 -93 56 -122 38 -96 92
-202 127 -247 l34 -45 -41 44 c-40 42 -89 136 -147 276 -15 39 -41 92 -56 118
-30 52 -34 62 -18 52 6 -4 26 -38 45 -76z m360 -573 c17 -13 28 -26 25 -29 -3
-3 -21 8 -40 24 -41 35 -28 39 15 5z m163 -9 c17 -10 32 -21 32 -24 0 -3 -16
4 -36 16 -19 12 -42 21 -50 21 -8 0 -14 4 -14 10 0 11 22 4 68 -23z m-94 -63
c7 -19 2 -18 -19 6 -16 17 -16 20 -3 15 9 -4 19 -13 22 -21z m34 7 c3 -8 -1
-12 -9 -9 -7 2 -15 10 -17 17 -3 8 1 12 9 9 7 -2 15 -10 17 -17z"/>
<path d="M1263 2083 c20 -2 54 -2 75 0 20 2 3 4 -38 4 -41 0 -58 -2 -37 -4z"/>
<path d="M1163 2073 c9 -2 23 -2 30 0 6 3 -1 5 -18 5 -16 0 -22 -2 -12 -5z"/>
<path d="M1465 2060 c39 -10 78 -21 88 -25 9 -4 17 -5 17 -1 0 8 -128 46 -154
45 -11 0 11 -8 49 -19z"/>
<path d="M1100 2060 c-18 -12 -2 -12 25 0 13 6 15 9 5 9 -8 0 -22 -4 -30 -9z"/>
<path d="M15 2050 c-3 -5 -1 -10 4 -10 6 0 11 5 11 10 0 6 -2 10 -4 10 -3 0
-8 -4 -11 -10z"/>
<path d="M100 2035 c7 -9 15 -13 17 -11 7 7 -7 26 -19 26 -6 0 -6 -6 2 -15z"/>
<path d="M32 2013 c-33 -4 -41 -20 -20 -41 10 -10 10 -15 -1 -22 -11 -6 -1
-21 45 -65 32 -31 81 -72 109 -91 27 -19 45 -34 40 -34 -6 0 -21 9 -35 20 -14
11 -29 20 -33 20 -11 0 61 -59 99 -82 16 -10 52 -34 79 -55 28 -20 66 -46 87
-58 20 -11 91 -54 157 -95 67 -41 156 -94 199 -117 42 -23 87 -50 99 -61 27
-24 94 -51 111 -45 9 4 7 12 -8 33 -22 31 -26 45 -10 35 6 -3 10 -4 10 0 0 15
-216 142 -254 149 -27 5 -66 24 -66 32 0 2 10 0 23 -6 20 -10 21 -10 4 4 -11
8 -26 12 -35 9 -9 -4 -13 -2 -9 4 5 7 0 9 -11 6 -11 -2 -40 9 -67 26 -27 17
-54 31 -60 31 -6 0 -27 11 -48 25 -20 14 -42 23 -49 19 -6 -4 -8 -3 -4 4 3 6
-12 23 -35 39 -23 15 -65 49 -94 76 -29 26 -59 47 -68 47 -20 0 -67 21 -67 30
0 4 -13 24 -30 45 -16 20 -27 41 -24 46 2 5 -3 20 -12 34 -17 26 -13 30 29 26
9 -1 17 3 17 8 0 11 -7 11 -68 4z"/>
<path d="M1683 1968 c24 -22 44 -24 27 -3 -7 9 -15 13 -18 10 -3 -3 -10 -1
-17 3 -6 4 -2 -1 8 -10z"/>
<path d="M242 1868 c3 -7 13 -15 24 -17 16 -3 17 -1 5 13 -16 19 -34 21 -29 4z"/>
<path d="M0 1842 c0 -12 19 -26 26 -19 2 2 -2 10 -11 17 -9 8 -15 8 -15 2z"/>
<path d="M40 1836 c0 -2 8 -10 18 -17 15 -13 16 -12 3 4 -13 16 -21 21 -21 13z"/>
<path d="M0 1755 c0 -29 8 -43 50 -82 54 -50 67 -76 22 -45 -15 10 -37 24 -49
31 l-23 12 0 -836 0 -835 1300 0 1300 0 0 236 c0 164 -3 233 -11 229 -6 -4
-16 0 -22 8 -7 8 -43 25 -82 38 -70 22 -110 43 -64 33 13 -3 34 -7 47 -10 13
-3 47 -14 75 -24 29 -11 53 -20 55 -20 1 0 2 9 2 20 0 11 -4 20 -10 20 -5 0
-10 -5 -10 -12 0 -7 -5 -6 -12 4 -7 8 -47 28 -88 43 -41 15 -94 36 -117 46
-23 11 -45 19 -49 19 -6 0 -96 39 -216 94 -26 11 -47 23 -48 26 0 7 79 5 120
-4 113 -24 195 -59 184 -78 -4 -6 -10 -4 -16 6 -5 9 -19 16 -31 16 -19 0 -136
34 -192 55 -16 7 -18 6 -8 -5 7 -8 18 -15 25 -16 7 -1 61 -21 120 -43 112 -44
132 -50 186 -55 18 -2 36 -7 40 -11 4 -4 -4 -5 -18 -1 -14 4 1 -7 34 -23 32
-16 69 -31 82 -34 23 -4 24 -2 24 54 0 59 0 59 -29 59 -17 0 -32 4 -36 9 -3 5
-29 15 -58 21 -29 6 -66 20 -82 31 -32 22 -32 22 38 2 37 -10 -1 35 -40 48
-21 6 -41 17 -45 23 -5 7 -8 7 -8 -3 0 -8 -6 -11 -16 -7 -15 6 -15 4 -3 -10
12 -15 11 -16 -11 -10 -14 4 -52 20 -85 36 -132 61 -158 71 -171 66 -8 -3 -14
-1 -14 3 0 5 -9 7 -20 4 -12 -3 -20 0 -20 6 0 7 -4 9 -10 6 -5 -3 -10 0 -10 8
0 8 -15 20 -32 27 -18 7 -56 23 -85 36 -28 13 -64 25 -80 28 -15 2 -28 5 -28
6 0 1 -10 3 -21 6 -40 7 -117 51 -103 58 8 3 4 4 -8 2 -12 -2 -48 7 -80 19
-37 15 -62 20 -68 14 -5 -5 -18 -9 -28 -9 -16 0 -17 -3 -7 -15 7 -8 20 -15 29
-15 12 0 13 -2 3 -8 -17 -11 31 -57 52 -49 8 3 17 0 19 -8 3 -7 24 -16 46 -20
23 -4 43 -11 46 -15 7 -11 67 -30 114 -36 19 -3 49 -11 65 -18 17 -8 39 -16
49 -20 9 -3 16 -11 15 -17 -2 -7 24 -23 57 -36 99 -39 108 -43 102 -50 -4 -3
-12 -1 -19 4 -20 16 -82 28 -74 14 4 -6 3 -11 -3 -11 -5 0 -11 6 -13 12 -3 7
-18 13 -34 14 -86 3 -87 3 -75 18 9 11 9 16 0 22 -8 4 -9 3 -5 -4 4 -7 2 -12
-3 -12 -6 0 -11 6 -11 13 0 24 -168 89 -255 100 -16 2 -51 13 -77 25 -26 12
-50 22 -53 22 -3 0 -18 8 -32 17 -14 10 -37 18 -51 19 -13 0 -27 6 -31 12 -3
6 -20 13 -36 17 -17 4 -49 15 -72 26 -24 10 -46 19 -50 19 -5 0 -26 12 -48 26
-22 15 -32 24 -22 20 9 -3 17 -1 17 4 0 6 -5 10 -11 10 -6 0 -25 11 -42 24
-18 13 -99 58 -182 100 -82 42 -161 86 -175 96 l-25 20 29 -10 c26 -9 27 -9
16 5 -7 8 -17 15 -22 15 -5 0 -96 43 -201 95 -194 96 -350 186 -391 224 -12
12 -27 21 -33 21 -6 0 -16 7 -23 15 -20 24 -30 17 -30 -20z m340 -284 c8 -9
38 -25 183 -98 72 -37 137 -72 143 -77 6 -6 27 -20 47 -31 20 -11 37 -23 37
-27 0 -8 -76 31 -153 80 -22 13 -41 21 -44 18 -9 -8 -214 106 -233 129 -7 8
-16 15 -21 15 -8 0 -77 45 -89 57 -3 3 24 -9 60 -28 36 -18 67 -35 70 -38z
m1207 -547 c-3 -3 -12 -4 -19 -1 -8 3 -5 6 6 6 11 1 17 -2 13 -5z m538 -154
c8 -13 -5 -13 -25 0 -13 8 -13 10 2 10 9 0 20 -4 23 -10z m5 -104 c23 -9 29
-16 19 -21 -7 -5 -14 -4 -17 3 -2 7 -12 12 -23 12 -10 0 -19 5 -19 10 0 13 1
13 40 -4z m121 -37 c64 -21 118 -47 70 -33 -17 4 -21 3 -16 -6 5 -9 1 -10 -16
-5 -50 15 -89 34 -89 44 0 5 -10 7 -22 4 -19 -4 -20 -3 -8 6 8 6 15 11 16 11
0 0 30 -9 65 -21z m316 -25 c-3 -3 -12 -4 -19 -1 -8 3 -5 6 6 6 11 1 17 -2 13
-5z m40 -10 c-3 -3 -12 -4 -19 -1 -8 3 -5 6 6 6 11 1 17 -2 13 -5z"/>
<path d="M1205 1771 c-105 -49 -185 -164 -185 -269 l0 -52 55 -25 c31 -13 59
-25 63 -25 4 -1 16 -7 27 -14 11 -7 38 -19 60 -26 22 -7 86 -35 143 -61 139
-65 158 -68 199 -29 46 43 74 113 80 195 5 59 1 80 -18 125 -39 94 -91 147
-183 187 -45 20 -193 16 -241 -6z"/>
<path d="M1098 1273 c56 -66 132 -105 197 -101 l47 3 -143 74 -143 75 42 -51z
m52 -23 c8 -5 11 -10 5 -10 -5 0 -17 5 -25 10 -8 5 -10 10 -5 10 6 0 17 -5 25
-10z"/>
<path d="M1665 1050 c72 -30 136 -50 175 -55 l45 -5 -55 20 c-30 11 -64 22
-75 25 -11 2 -36 9 -55 14 -41 13 -64 13 -35 1z"/>
<path d="M1939 964 c29 -13 59 -24 65 -23 16 1 -86 48 -104 48 -8 0 9 -11 39
-25z"/>
<path d="M2335 970 c3 -5 8 -10 11 -10 2 0 4 5 4 10 0 6 -5 10 -11 10 -5 0 -7
-4 -4 -10z"/>
<path d="M2378 963 c7 -3 16 -2 19 1 4 3 -2 6 -13 5 -11 0 -14 -3 -6 -6z"/>
<path d="M2415 960 c3 -5 11 -10 16 -10 6 0 7 5 4 10 -3 6 -11 10 -16 10 -6 0
-7 -4 -4 -10z"/>
<path d="M2090 923 c8 -3 30 -12 47 -20 18 -8 56 -19 85 -23 29 -4 44 -8 33
-9 -17 -1 -18 -3 -5 -11 20 -13 33 -13 25 0 -3 6 0 10 7 10 10 0 10 2 -1 9 -7
5 -11 13 -7 19 4 6 -13 11 -44 14 -28 1 -51 -1 -53 -7 -2 -5 -19 -1 -39 8 -20
9 -42 17 -50 16 -9 0 -9 -2 2 -6z"/>
<path d="M2448 907 c12 -13 19 -27 15 -30 -3 -4 5 -7 19 -7 33 0 40 -8 27 -32
-10 -18 -18 -19 -81 -14 -51 4 -74 10 -85 23 -12 15 -14 15 -10 2 3 -9 1 -21
-5 -27 -8 -8 -5 -9 11 -5 11 3 21 1 21 -3 0 -5 15 -10 33 -12 77 -6 97 -9 109
-19 7 -6 20 -13 28 -17 8 -3 -3 -4 -25 -1 l-40 5 28 -16 c16 -9 39 -13 52 -10
17 4 22 2 21 -11 0 -10 7 -19 17 -21 14 -3 17 4 17 36 0 38 -1 40 -47 52 l-46
13 27 24 c23 19 26 26 16 38 -7 8 -19 14 -28 13 -43 -3 -53 2 -47 22 5 17 2
20 -21 20 l-27 0 21 -23z"/>
<path d="M2300 906 c0 -11 59 -36 85 -36 24 0 34 13 18 23 -13 8 -103 20 -103
13z"/>
<path d="M2480 850 c0 -5 5 -10 11 -10 5 0 7 5 4 10 -3 6 -8 10 -11 10 -2 0
-4 -4 -4 -10z"/>
</g>
</svg>
